PathFileType	4	(X/Y/Z)	Patient4_TMGait_0pt6_01_left_14.trc.trc
DataRate	CameraRate	NumFrames	NumMarkers	Units	OrigDataRate	OrigDataStartFrame	OrigNumFrames
82.352941176471	82.352941176471	4	33	mm	82.352941176471	36	       141
Frame#	Time	Sacral			L.Shoulder			Chest			R.Shoulder			Neck			R.ASIS			L.ASIS			R.Thigh.Superior			R.Thigh.Lateral			R.Thigh.Inferior			R.Patella			L.Thigh.Superior			L.Thigh.Lateral			L.Thigh.Inferior			L.Patella			L.Shank.Superior			L.Shank.Lateral			L.Shank.Inferior			R.Shank.Superior			R.Shank.Lateral			R.Shank.Inferior			R.Heel			R.Midfoot.Superior			R.Midfoot.Lateral			R.Toe			L.Heel			L.Midfoot.Lateral			L.Midfoot.Superior			L.Toe			L.Elbow			L.Wrist			R.Elbow			R.Wrist			
		X1	Y1	Z1	X2	Y2	Z2	X3	Y3	Z3	X4	Y4	Z4	X5	Y5	Z5	X6	Y6	Z6	X7	Y7	Z7	X8	Y8	Z8	X9	Y9	Z9	X10	Y10	Z10	X11	Y11	Z11	X12	Y12	Z12	X13	Y13	Z13	X14	Y14	Z14	X15	Y15	Z15	X16	Y16	Z16	X17	Y17	Z17	X18	Y18	Z18	X19	Y19	Z19	X20	Y20	Z20	X21	Y21	Z21	X22	Y22	Z22	X23	Y23	Z23	X24	Y24	Z24	X25	Y25	Z25	X26	Y26	Z26	X27	Y27	Z27	X28	Y28	Z28	X29	Y29	Z29	X30	Y30	Z30	X31	Y31	Z31	X32	Y32	Z32	X33	Y33	Z33	

36	17.435000000000	647.361732939215	1001.059060484898	467.407333669087	788.045120524622	1429.688981204018	284.408704883924	908.712087914994	1363.751878525020	434.191668548848	839.155192211015	1432.780958628535	615.161943126758	783.116754179931	1488.552142586553	440.155032919024	876.046068777695	932.344887948494	575.665990026436	854.969174562942	957.631050436638	301.697413896471	883.254709258164	718.316357748475	549.382934576564	783.781004601920	620.244880946691	608.412914666833	853.102695226137	554.007160286635	532.183693158846	833.161427613135	452.008737564666	543.802545832632	929.191020438270	763.790934798981	338.202422141072	864.367534339138	637.449909657965	271.014749294858	959.623140154514	572.567886801118	336.330989112962	971.238340490914	501.276883697430	342.641084576924	949.497424186783	426.344384865813	332.956949887959	870.126532299554	305.496510919302	279.875174973043	932.319491472679	198.463161157465	348.969212709922	765.038271304054	382.398107665368	547.607943037145	653.746069016837	321.514481395107	607.872410093186	653.343155448582	215.410968014454	549.280249476975	464.217094610183	102.822054225227	518.363805082614	641.684260102859	104.851156597766	559.197176852486	539.463882604725	68.312726621115	592.142904960630	739.434436020521	35.227571255651	586.384196450571	815.683069531773	38.076017599825	389.987219758151	888.415403722040	35.717787975971	307.782560153234	970.677683620220	98.292288631485	333.059208648434	1099.041633594337	49.028652713232	302.766725215038	709.675768204410	1080.297192366825	181.411770674620	721.621975275630	820.384490660139	184.141099677612	934.687197649770	1101.246879495886	736.477729762545	1184.173411236512	1074.606265241237	693.475851949688	
37	17.447142857143	647.024460987293	1002.221718433982	464.907358496541	789.535091769536	1430.663967277073	281.800349917738	909.142150487950	1364.717214573195	432.379801252438	838.621342704773	1434.082634163093	612.797958152283	783.560263751645	1489.588714313946	437.480281726795	875.270255693582	933.390506970677	573.841922082910	855.196179386375	958.727024858285	300.016768210831	887.279165147610	720.141310506407	548.070033833480	790.525571800070	620.092923388382	607.103301099185	862.035883503898	554.904644986572	531.246630390859	843.351640020977	451.104262765620	544.178428316139	927.940879388211	763.240292250575	335.121995913416	860.596084114785	637.366883458019	269.700737931208	955.443679904182	571.668962267634	334.567148443522	966.243506172354	500.700201848111	341.648131990967	944.239461153595	425.902061963683	332.121585269946	864.308759360683	305.379941519892	279.435257611972	925.704296487933	198.200665096446	348.810773716818	772.651853831484	382.649274313039	547.538836125862	658.913155440207	325.956839760133	607.299439337501	655.456173403077	219.532124099841	549.544483770409	462.703424078448	115.310935696544	518.181880936614	639.422432112324	107.424257386417	559.445467170644	535.577121062110	76.461178973145	591.973787300072	732.361345699584	34.358041328630	586.514338775725	808.368923751622	38.003325939814	389.951586480156	881.068404530582	35.629174779356	307.708157562685	963.327726822628	98.190249693617	333.017839611599	1091.710425792440	48.987238057765	302.641188723438	717.216690113430	1080.084542332763	176.948350850701	735.843681940132	820.487035232591	179.288281395918	924.932941965920	1099.847959051763	734.884463188259	1172.944402423756	1058.238519510406	692.650433853593	
38	17.459285714286	646.513174057181	1003.213172531631	462.489732737448	791.078082215049	1431.521762733060	279.298703814584	909.526655582515	1365.521062495425	430.713890317046	837.943261849904	1435.161117837641	610.567791832954	783.975380690940	1490.486568221847	434.930586043634	874.344034469498	934.273711629800	572.079894681881	855.261322446882	959.671115120910	298.435435412918	891.727146206570	722.175119346864	546.723247600872	798.063602570353	619.992148315068	605.837348822426	871.762821100408	556.066707873661	530.246438851009	854.442230728852	450.547079242535	544.314553028905	926.412202487311	762.514441618039	332.184799014981	856.783408793742	637.260613945827	268.390059213305	951.101456558776	570.749629088522	332.966091752652	961.090932453737	500.071619866018	340.676954757978	938.839004958011	425.419749193231	331.271860943869	858.365807361773	305.199681644580	279.007428329266	919.017672665646	197.894444560747	348.647008253721	781.307954947346	383.147500046163	547.315072921044	665.278537453653	330.769047019966	606.647530970221	658.589553653864	224.187878602602	549.672452380369	462.497602075776	129.128586471800	517.821978679442	637.849842898485	110.628391421184	559.555620482952	532.543833122159	85.849307890408	591.688317498739	725.438819263812	33.345715221012	586.722676284637	801.001446967214	37.920804074481	389.921439487635	873.678295418563	35.521563512537	307.649197137708	955.965439626401	98.028469302285	333.014659884059	1084.357905525039	48.814019044454	302.563284179520	724.792727831618	1079.973998821859	172.388663390342	750.716879432390	820.915175333765	174.504004905623	914.880353543297	1098.419641296477	733.163850403975	1160.529533400322	1041.535757522653	691.872715956042	
39	17.471428571429	645.822302787002	1003.995640640490	460.170722304962	792.644156850744	1432.223144313050	276.938178285063	909.853051956142	1366.124065287950	429.218074437146	837.128590842924	1435.981695238210	608.505489076422	784.367500834021	1491.226001473653	432.532550630536	873.266130805143	934.961166235718	570.374358671454	855.153562309650	960.449572619895	296.937793579728	896.477981005736	724.434085183708	545.274606587368	806.266167522177	620.010277725637	604.577878616165	882.088393197158	557.560958316880	529.120245438892	866.270288988992	450.416542446109	544.123897957797	924.655764183746	761.687714147324	329.502151578956	853.091266014769	637.173210238923	267.075887034247	946.720936524073	569.852427337527	331.565888594020	955.904496423224	499.407459412164	339.749903633297	933.410766513255	424.903408681854	330.429460007232	852.414697577984	304.977425338428	278.558942286826	912.322518874786	197.552656023565	348.478454677172	790.868655877081	383.949962460651	546.865051137543	672.752341172243	335.919329995242	605.871764491756	662.718490232422	229.353767321162	549.609577874821	463.697233454362	144.039824727379	517.261985907908	637.055921492025	114.519226766708	559.511181509035	530.513472029489	96.360324978524	591.259924856903	718.838801752684	32.261691612913	586.979042642902	793.610092219571	37.837663170335	389.888374256876	866.273771163779	35.408403501092	307.597663212518	948.613434874807	97.830544489568	333.038621000485	1077.008316276639	48.543379802702	302.520915377895	732.373450941454	1079.931614084371	167.758135981069	766.192844148602	821.682747766770	169.827263835906	904.573486717137	1096.907819425525	731.310827794679	1146.883474612878	1024.552695563871	691.180094640880	
